<svg width="859" height="187" viewBox="0 0 859 187" fill="none" xmlns="http://www.w3.org/2000/svg">
<g clip-path="url(#clip0_8_6)">
<path d="M591.762 105.325H441.762V180.325H591.762V105.325Z" fill="#DDDDDD"/>
<path d="M479.947 149.01H482.937V151.14H473.737V149.01H477.107V139.32C477.107 138.933 477.121 138.537 477.147 138.13L474.757 140.13C474.617 140.243 474.481 140.313 474.347 140.34C474.214 140.367 474.087 140.367 473.967 140.34C473.847 140.32 473.741 140.28 473.647 140.22C473.554 140.16 473.484 140.097 473.437 140.03L472.547 138.8L477.617 134.49H479.947V149.01ZM489.637 137.09L489.047 140.55C489.414 140.47 489.767 140.413 490.107 140.38C490.441 140.347 490.767 140.33 491.087 140.33C491.961 140.33 492.731 140.46 493.397 140.72C494.064 140.98 494.624 141.34 495.077 141.8C495.524 142.26 495.864 142.8 496.097 143.42C496.324 144.033 496.437 144.697 496.437 145.41C496.437 146.297 496.284 147.103 495.977 147.83C495.664 148.557 495.231 149.18 494.677 149.7C494.131 150.213 493.477 150.613 492.717 150.9C491.964 151.18 491.144 151.32 490.257 151.32C489.737 151.32 489.241 151.267 488.767 151.16C488.301 151.053 487.864 150.91 487.457 150.73C487.044 150.55 486.664 150.343 486.317 150.11C485.971 149.877 485.657 149.63 485.377 149.37L486.257 148.16C486.437 147.9 486.677 147.77 486.977 147.77C487.171 147.77 487.367 147.83 487.567 147.95C487.767 148.077 487.994 148.213 488.247 148.36C488.507 148.507 488.811 148.64 489.157 148.76C489.504 148.88 489.924 148.94 490.417 148.94C490.937 148.94 491.397 148.857 491.797 148.69C492.197 148.523 492.527 148.287 492.787 147.98C493.054 147.68 493.254 147.32 493.387 146.9C493.521 146.487 493.587 146.033 493.587 145.54C493.587 144.633 493.324 143.927 492.797 143.42C492.277 142.907 491.504 142.65 490.477 142.65C489.684 142.65 488.874 142.797 488.047 143.09L486.277 142.58L487.657 134.51H495.867V135.72C495.867 136.127 495.741 136.457 495.487 136.71C495.234 136.963 494.804 137.09 494.197 137.09H489.637ZM510.487 142.83C510.487 144.277 510.331 145.533 510.017 146.6C509.704 147.673 509.274 148.557 508.727 149.25C508.181 149.95 507.534 150.47 506.787 150.81C506.041 151.15 505.234 151.32 504.367 151.32C503.501 151.32 502.697 151.15 501.957 150.81C501.217 150.47 500.574 149.95 500.027 149.25C499.487 148.557 499.064 147.673 498.757 146.6C498.451 145.533 498.297 144.277 498.297 142.83C498.297 141.37 498.451 140.107 498.757 139.04C499.064 137.973 499.487 137.093 500.027 136.4C500.574 135.7 501.217 135.18 501.957 134.84C502.697 134.5 503.501 134.33 504.367 134.33C505.234 134.33 506.041 134.5 506.787 134.84C507.534 135.18 508.181 135.7 508.727 136.4C509.274 137.093 509.704 137.973 510.017 139.04C510.331 140.107 510.487 141.37 510.487 142.83ZM507.547 142.83C507.547 141.623 507.461 140.627 507.287 139.84C507.107 139.047 506.871 138.417 506.577 137.95C506.284 137.483 505.944 137.157 505.557 136.97C505.177 136.777 504.781 136.68 504.367 136.68C503.961 136.68 503.567 136.777 503.187 136.97C502.807 137.157 502.471 137.483 502.177 137.95C501.891 138.417 501.661 139.047 501.487 139.84C501.314 140.627 501.227 141.623 501.227 142.83C501.227 144.03 501.314 145.027 501.487 145.82C501.661 146.607 501.891 147.233 502.177 147.7C502.471 148.167 502.807 148.493 503.187 148.68C503.567 148.873 503.961 148.97 504.367 148.97C504.781 148.97 505.177 148.873 505.557 148.68C505.944 148.493 506.284 148.167 506.577 147.7C506.871 147.233 507.107 146.607 507.287 145.82C507.461 145.027 507.547 144.03 507.547 142.83ZM528.747 147.33L527.237 148.82L523.337 144.92L519.407 148.84L517.897 147.36L521.837 143.41L518.087 139.66L519.577 138.17L523.327 141.92L527.057 138.19L528.577 139.69L524.837 143.42L528.747 147.33ZM536.647 134.51H548.137V135.74C548.137 136.107 548.097 136.403 548.017 136.63C547.944 136.857 547.867 137.047 547.787 137.2L541.487 150.17C541.354 150.443 541.171 150.673 540.937 150.86C540.697 151.047 540.377 151.14 539.977 151.14H537.917L544.347 138.43C544.494 138.17 544.637 137.93 544.777 137.71C544.924 137.497 545.084 137.29 545.257 137.09H537.297C537.124 137.09 536.971 137.023 536.837 136.89C536.711 136.763 536.647 136.61 536.647 136.43V134.51ZM554.167 137.09L553.587 140.55C553.954 140.47 554.307 140.413 554.647 140.38C554.981 140.347 555.304 140.33 555.617 140.33C556.491 140.33 557.261 140.46 557.927 140.72C558.601 140.98 559.161 141.34 559.607 141.8C560.061 142.26 560.404 142.8 560.637 143.42C560.864 144.033 560.977 144.697 560.977 145.41C560.977 146.297 560.824 147.103 560.517 147.83C560.204 148.557 559.771 149.18 559.217 149.7C558.664 150.213 558.011 150.613 557.257 150.9C556.504 151.18 555.684 151.32 554.797 151.32C554.271 151.32 553.774 151.267 553.307 151.16C552.841 151.053 552.404 150.91 551.997 150.73C551.584 150.55 551.204 150.343 550.857 150.11C550.504 149.877 550.191 149.63 549.917 149.37L550.787 148.16C550.974 147.9 551.217 147.77 551.517 147.77C551.711 147.77 551.904 147.83 552.097 147.95C552.297 148.077 552.527 148.213 552.787 148.36C553.041 148.507 553.344 148.64 553.697 148.76C554.044 148.88 554.464 148.94 554.957 148.94C555.477 148.94 555.937 148.857 556.337 148.69C556.731 148.523 557.061 148.287 557.327 147.98C557.594 147.68 557.794 147.32 557.927 146.9C558.061 146.487 558.127 146.033 558.127 145.54C558.127 144.633 557.864 143.927 557.337 143.42C556.811 142.907 556.034 142.65 555.007 142.65C554.221 142.65 553.414 142.797 552.587 143.09L550.817 142.58L552.197 134.51H560.407V135.72C560.407 136.127 560.281 136.457 560.027 136.71C559.774 136.963 559.344 137.09 558.737 137.09H554.167Z" fill="#999999"/>
</g>
<g clip-path="url(#clip1_8_6)">
<path d="M417.762 105.325H267.762V180.325H417.762V105.325Z" fill="#DDDDDD"/>
<path d="M305.947 149.01H308.937V151.14H299.737V149.01H303.107V139.32C303.107 138.933 303.121 138.537 303.147 138.13L300.757 140.13C300.617 140.243 300.481 140.313 300.347 140.34C300.214 140.367 300.087 140.367 299.967 140.34C299.847 140.32 299.741 140.28 299.647 140.22C299.554 140.16 299.484 140.097 299.437 140.03L298.547 138.8L303.617 134.49H305.947V149.01ZM315.637 137.09L315.047 140.55C315.414 140.47 315.767 140.413 316.107 140.38C316.441 140.347 316.767 140.33 317.087 140.33C317.961 140.33 318.731 140.46 319.397 140.72C320.064 140.98 320.624 141.34 321.077 141.8C321.524 142.26 321.864 142.8 322.097 143.42C322.324 144.033 322.437 144.697 322.437 145.41C322.437 146.297 322.284 147.103 321.977 147.83C321.664 148.557 321.231 149.18 320.677 149.7C320.131 150.213 319.477 150.613 318.717 150.9C317.964 151.18 317.144 151.32 316.257 151.32C315.737 151.32 315.241 151.267 314.767 151.16C314.301 151.053 313.864 150.91 313.457 150.73C313.044 150.55 312.664 150.343 312.317 150.11C311.971 149.877 311.657 149.63 311.377 149.37L312.257 148.16C312.437 147.9 312.677 147.77 312.977 147.77C313.171 147.77 313.367 147.83 313.567 147.95C313.767 148.077 313.994 148.213 314.247 148.36C314.507 148.507 314.811 148.64 315.157 148.76C315.504 148.88 315.924 148.94 316.417 148.94C316.937 148.94 317.397 148.857 317.797 148.69C318.197 148.523 318.527 148.287 318.787 147.98C319.054 147.68 319.254 147.32 319.387 146.9C319.521 146.487 319.587 146.033 319.587 145.54C319.587 144.633 319.324 143.927 318.797 143.42C318.277 142.907 317.504 142.65 316.477 142.65C315.684 142.65 314.874 142.797 314.047 143.09L312.277 142.58L313.657 134.51H321.867V135.72C321.867 136.127 321.741 136.457 321.487 136.71C321.234 136.963 320.804 137.09 320.197 137.09H315.637ZM336.487 142.83C336.487 144.277 336.331 145.533 336.017 146.6C335.704 147.673 335.274 148.557 334.727 149.25C334.181 149.95 333.534 150.47 332.787 150.81C332.041 151.15 331.234 151.32 330.367 151.32C329.501 151.32 328.697 151.15 327.957 150.81C327.217 150.47 326.574 149.95 326.027 149.25C325.487 148.557 325.064 147.673 324.757 146.6C324.451 145.533 324.297 144.277 324.297 142.83C324.297 141.37 324.451 140.107 324.757 139.04C325.064 137.973 325.487 137.093 326.027 136.4C326.574 135.7 327.217 135.18 327.957 134.84C328.697 134.5 329.501 134.33 330.367 134.33C331.234 134.33 332.041 134.5 332.787 134.84C333.534 135.18 334.181 135.7 334.727 136.4C335.274 137.093 335.704 137.973 336.017 139.04C336.331 140.107 336.487 141.37 336.487 142.83ZM333.547 142.83C333.547 141.623 333.461 140.627 333.287 139.84C333.107 139.047 332.871 138.417 332.577 137.95C332.284 137.483 331.944 137.157 331.557 136.97C331.177 136.777 330.781 136.68 330.367 136.68C329.961 136.68 329.567 136.777 329.187 136.97C328.807 137.157 328.471 137.483 328.177 137.95C327.891 138.417 327.661 139.047 327.487 139.84C327.314 140.627 327.227 141.623 327.227 142.83C327.227 144.03 327.314 145.027 327.487 145.82C327.661 146.607 327.891 147.233 328.177 147.7C328.471 148.167 328.807 148.493 329.187 148.68C329.567 148.873 329.961 148.97 330.367 148.97C330.781 148.97 331.177 148.873 331.557 148.68C331.944 148.493 332.284 148.167 332.577 147.7C332.871 147.233 333.107 146.607 333.287 145.82C333.461 145.027 333.547 144.03 333.547 142.83ZM354.747 147.33L353.237 148.82L349.337 144.92L345.407 148.84L343.897 147.36L347.837 143.41L344.087 139.66L345.577 138.17L349.327 141.92L353.057 138.19L354.577 139.69L350.837 143.42L354.747 147.33ZM362.647 134.51H374.137V135.74C374.137 136.107 374.097 136.403 374.017 136.63C373.944 136.857 373.867 137.047 373.787 137.2L367.487 150.17C367.354 150.443 367.171 150.673 366.937 150.86C366.697 151.047 366.377 151.14 365.977 151.14H363.917L370.347 138.43C370.494 138.17 370.637 137.93 370.777 137.71C370.924 137.497 371.084 137.29 371.257 137.09H363.297C363.124 137.09 362.971 137.023 362.837 136.89C362.711 136.763 362.647 136.61 362.647 136.43V134.51ZM380.167 137.09L379.587 140.55C379.954 140.47 380.307 140.413 380.647 140.38C380.981 140.347 381.304 140.33 381.617 140.33C382.491 140.33 383.261 140.46 383.927 140.72C384.601 140.98 385.161 141.34 385.607 141.8C386.061 142.26 386.404 142.8 386.637 143.42C386.864 144.033 386.977 144.697 386.977 145.41C386.977 146.297 386.824 147.103 386.517 147.83C386.204 148.557 385.771 149.18 385.217 149.7C384.664 150.213 384.011 150.613 383.257 150.9C382.504 151.18 381.684 151.32 380.797 151.32C380.271 151.32 379.774 151.267 379.307 151.16C378.841 151.053 378.404 150.91 377.997 150.73C377.584 150.55 377.204 150.343 376.857 150.11C376.504 149.877 376.191 149.63 375.917 149.37L376.787 148.16C376.974 147.9 377.217 147.77 377.517 147.77C377.711 147.77 377.904 147.83 378.097 147.95C378.297 148.077 378.527 148.213 378.787 148.36C379.041 148.507 379.344 148.64 379.697 148.76C380.044 148.88 380.464 148.94 380.957 148.94C381.477 148.94 381.937 148.857 382.337 148.69C382.731 148.523 383.061 148.287 383.327 147.98C383.594 147.68 383.794 147.32 383.927 146.9C384.061 146.487 384.127 146.033 384.127 145.54C384.127 144.633 383.864 143.927 383.337 143.42C382.811 142.907 382.034 142.65 381.007 142.65C380.221 142.65 379.414 142.797 378.587 143.09L376.817 142.58L378.197 134.51H386.407V135.72C386.407 136.127 386.281 136.457 386.027 136.71C385.774 136.963 385.344 137.09 384.737 137.09H380.167Z" fill="#999999"/>
</g>
<g clip-path="url(#clip2_8_6)">
<path d="M765.762 6.32495H615.762V81.325H765.762V6.32495Z" fill="#DDDDDD"/>
<path d="M653.947 50.01H656.937V52.14H647.737V50.01H651.107V40.32C651.107 39.9333 651.121 39.5366 651.147 39.13L648.757 41.13C648.617 41.2433 648.481 41.3133 648.347 41.34C648.214 41.3666 648.087 41.3666 647.967 41.34C647.847 41.32 647.741 41.28 647.647 41.22C647.554 41.16 647.484 41.0966 647.437 41.03L646.547 39.8L651.617 35.49H653.947V50.01ZM663.637 38.09L663.047 41.55C663.414 41.47 663.767 41.4133 664.107 41.38C664.441 41.3466 664.767 41.33 665.087 41.33C665.961 41.33 666.731 41.46 667.397 41.72C668.064 41.98 668.624 42.34 669.077 42.8C669.524 43.26 669.864 43.8 670.097 44.42C670.324 45.0333 670.437 45.6966 670.437 46.41C670.437 47.2966 670.284 48.1033 669.977 48.83C669.664 49.5566 669.231 50.18 668.677 50.7C668.131 51.2133 667.477 51.6133 666.717 51.9C665.964 52.18 665.144 52.32 664.257 52.32C663.737 52.32 663.241 52.2666 662.767 52.16C662.301 52.0533 661.864 51.91 661.457 51.73C661.044 51.55 660.664 51.3433 660.317 51.11C659.971 50.8766 659.657 50.63 659.377 50.37L660.257 49.16C660.437 48.9 660.677 48.77 660.977 48.77C661.171 48.77 661.367 48.83 661.567 48.95C661.767 49.0766 661.994 49.2133 662.247 49.36C662.507 49.5066 662.811 49.64 663.157 49.76C663.504 49.88 663.924 49.94 664.417 49.94C664.937 49.94 665.397 49.8566 665.797 49.69C666.197 49.5233 666.527 49.2866 666.787 48.98C667.054 48.68 667.254 48.32 667.387 47.9C667.521 47.4866 667.587 47.0333 667.587 46.54C667.587 45.6333 667.324 44.9266 666.797 44.42C666.277 43.9066 665.504 43.65 664.477 43.65C663.684 43.65 662.874 43.7966 662.047 44.09L660.277 43.58L661.657 35.51H669.867V36.72C669.867 37.1266 669.741 37.4566 669.487 37.71C669.234 37.9633 668.804 38.09 668.197 38.09H663.637ZM684.487 43.83C684.487 45.2766 684.331 46.5333 684.017 47.6C683.704 48.6733 683.274 49.5566 682.727 50.25C682.181 50.95 681.534 51.47 680.787 51.81C680.041 52.15 679.234 52.32 678.367 52.32C677.501 52.32 676.697 52.15 675.957 51.81C675.217 51.47 674.574 50.95 674.027 50.25C673.487 49.5566 673.064 48.6733 672.757 47.6C672.451 46.5333 672.297 45.2766 672.297 43.83C672.297 42.37 672.451 41.1066 672.757 40.04C673.064 38.9733 673.487 38.0933 674.027 37.4C674.574 36.7 675.217 36.18 675.957 35.84C676.697 35.5 677.501 35.33 678.367 35.33C679.234 35.33 680.041 35.5 680.787 35.84C681.534 36.18 682.181 36.7 682.727 37.4C683.274 38.0933 683.704 38.9733 684.017 40.04C684.331 41.1066 684.487 42.37 684.487 43.83ZM681.547 43.83C681.547 42.6233 681.461 41.6266 681.287 40.84C681.107 40.0466 680.871 39.4166 680.577 38.95C680.284 38.4833 679.944 38.1566 679.557 37.97C679.177 37.7766 678.781 37.68 678.367 37.68C677.961 37.68 677.567 37.7766 677.187 37.97C676.807 38.1566 676.471 38.4833 676.177 38.95C675.891 39.4166 675.661 40.0466 675.487 40.84C675.314 41.6266 675.227 42.6233 675.227 43.83C675.227 45.03 675.314 46.0266 675.487 46.82C675.661 47.6066 675.891 48.2333 676.177 48.7C676.471 49.1666 676.807 49.4933 677.187 49.68C677.567 49.8733 677.961 49.97 678.367 49.97C678.781 49.97 679.177 49.8733 679.557 49.68C679.944 49.4933 680.284 49.1666 680.577 48.7C680.871 48.2333 681.107 47.6066 681.287 46.82C681.461 46.0266 681.547 45.03 681.547 43.83ZM702.747 48.33L701.237 49.82L697.337 45.92L693.407 49.84L691.897 48.36L695.837 44.41L692.087 40.66L693.577 39.17L697.327 42.92L701.057 39.19L702.577 40.69L698.837 44.42L702.747 48.33ZM710.647 35.51H722.137V36.74C722.137 37.1066 722.097 37.4033 722.017 37.63C721.944 37.8566 721.867 38.0466 721.787 38.2L715.487 51.17C715.354 51.4433 715.171 51.6733 714.937 51.86C714.697 52.0466 714.377 52.14 713.977 52.14H711.917L718.347 39.43C718.494 39.17 718.637 38.93 718.777 38.71C718.924 38.4966 719.084 38.29 719.257 38.09H711.297C711.124 38.09 710.971 38.0233 710.837 37.89C710.711 37.7633 710.647 37.61 710.647 37.43V35.51ZM728.167 38.09L727.587 41.55C727.954 41.47 728.307 41.4133 728.647 41.38C728.981 41.3466 729.304 41.33 729.617 41.33C730.491 41.33 731.261 41.46 731.927 41.72C732.601 41.98 733.161 42.34 733.607 42.8C734.061 43.26 734.404 43.8 734.637 44.42C734.864 45.0333 734.977 45.6966 734.977 46.41C734.977 47.2966 734.824 48.1033 734.517 48.83C734.204 49.5566 733.771 50.18 733.217 50.7C732.664 51.2133 732.011 51.6133 731.257 51.9C730.504 52.18 729.684 52.32 728.797 52.32C728.271 52.32 727.774 52.2666 727.307 52.16C726.841 52.0533 726.404 51.91 725.997 51.73C725.584 51.55 725.204 51.3433 724.857 51.11C724.504 50.8766 724.191 50.63 723.917 50.37L724.787 49.16C724.974 48.9 725.217 48.77 725.517 48.77C725.711 48.77 725.904 48.83 726.097 48.95C726.297 49.0766 726.527 49.2133 726.787 49.36C727.041 49.5066 727.344 49.64 727.697 49.76C728.044 49.88 728.464 49.94 728.957 49.94C729.477 49.94 729.937 49.8566 730.337 49.69C730.731 49.5233 731.061 49.2866 731.327 48.98C731.594 48.68 731.794 48.32 731.927 47.9C732.061 47.4866 732.127 47.0333 732.127 46.54C732.127 45.6333 731.864 44.9266 731.337 44.42C730.811 43.9066 730.034 43.65 729.007 43.65C728.221 43.65 727.414 43.7966 726.587 44.09L724.817 43.58L726.197 35.51H734.407V36.72C734.407 37.1266 734.281 37.4566 734.027 37.71C733.774 37.9633 733.344 38.09 732.737 38.09H728.167Z" fill="#999999"/>
</g>
<g clip-path="url(#clip3_8_6)">
<path d="M591.762 6.32495H441.762V81.325H591.762V6.32495Z" fill="#DDDDDD"/>
<path d="M479.947 50.01H482.937V52.14H473.737V50.01H477.107V40.32C477.107 39.9333 477.121 39.5366 477.147 39.13L474.757 41.13C474.617 41.2433 474.481 41.3133 474.347 41.34C474.214 41.3666 474.087 41.3666 473.967 41.34C473.847 41.32 473.741 41.28 473.647 41.22C473.554 41.16 473.484 41.0966 473.437 41.03L472.547 39.8L477.617 35.49H479.947V50.01ZM489.637 38.09L489.047 41.55C489.414 41.47 489.767 41.4133 490.107 41.38C490.441 41.3466 490.767 41.33 491.087 41.33C491.961 41.33 492.731 41.46 493.397 41.72C494.064 41.98 494.624 42.34 495.077 42.8C495.524 43.26 495.864 43.8 496.097 44.42C496.324 45.0333 496.437 45.6966 496.437 46.41C496.437 47.2966 496.284 48.1033 495.977 48.83C495.664 49.5566 495.231 50.18 494.677 50.7C494.131 51.2133 493.477 51.6133 492.717 51.9C491.964 52.18 491.144 52.32 490.257 52.32C489.737 52.32 489.241 52.2666 488.767 52.16C488.301 52.0533 487.864 51.91 487.457 51.73C487.044 51.55 486.664 51.3433 486.317 51.11C485.971 50.8766 485.657 50.63 485.377 50.37L486.257 49.16C486.437 48.9 486.677 48.77 486.977 48.77C487.171 48.77 487.367 48.83 487.567 48.95C487.767 49.0766 487.994 49.2133 488.247 49.36C488.507 49.5066 488.811 49.64 489.157 49.76C489.504 49.88 489.924 49.94 490.417 49.94C490.937 49.94 491.397 49.8566 491.797 49.69C492.197 49.5233 492.527 49.2866 492.787 48.98C493.054 48.68 493.254 48.32 493.387 47.9C493.521 47.4866 493.587 47.0333 493.587 46.54C493.587 45.6333 493.324 44.9266 492.797 44.42C492.277 43.9066 491.504 43.65 490.477 43.65C489.684 43.65 488.874 43.7966 488.047 44.09L486.277 43.58L487.657 35.51H495.867V36.72C495.867 37.1266 495.741 37.4566 495.487 37.71C495.234 37.9633 494.804 38.09 494.197 38.09H489.637ZM510.487 43.83C510.487 45.2766 510.331 46.5333 510.017 47.6C509.704 48.6733 509.274 49.5566 508.727 50.25C508.181 50.95 507.534 51.47 506.787 51.81C506.041 52.15 505.234 52.32 504.367 52.32C503.501 52.32 502.697 52.15 501.957 51.81C501.217 51.47 500.574 50.95 500.027 50.25C499.487 49.5566 499.064 48.6733 498.757 47.6C498.451 46.5333 498.297 45.2766 498.297 43.83C498.297 42.37 498.451 41.1066 498.757 40.04C499.064 38.9733 499.487 38.0933 500.027 37.4C500.574 36.7 501.217 36.18 501.957 35.84C502.697 35.5 503.501 35.33 504.367 35.33C505.234 35.33 506.041 35.5 506.787 35.84C507.534 36.18 508.181 36.7 508.727 37.4C509.274 38.0933 509.704 38.9733 510.017 40.04C510.331 41.1066 510.487 42.37 510.487 43.83ZM507.547 43.83C507.547 42.6233 507.461 41.6266 507.287 40.84C507.107 40.0466 506.871 39.4166 506.577 38.95C506.284 38.4833 505.944 38.1566 505.557 37.97C505.177 37.7766 504.781 37.68 504.367 37.68C503.961 37.68 503.567 37.7766 503.187 37.97C502.807 38.1566 502.471 38.4833 502.177 38.95C501.891 39.4166 501.661 40.0466 501.487 40.84C501.314 41.6266 501.227 42.6233 501.227 43.83C501.227 45.03 501.314 46.0266 501.487 46.82C501.661 47.6066 501.891 48.2333 502.177 48.7C502.471 49.1666 502.807 49.4933 503.187 49.68C503.567 49.8733 503.961 49.97 504.367 49.97C504.781 49.97 505.177 49.8733 505.557 49.68C505.944 49.4933 506.284 49.1666 506.577 48.7C506.871 48.2333 507.107 47.6066 507.287 46.82C507.461 46.0266 507.547 45.03 507.547 43.83ZM528.747 48.33L527.237 49.82L523.337 45.92L519.407 49.84L517.897 48.36L521.837 44.41L518.087 40.66L519.577 39.17L523.327 42.92L527.057 39.19L528.577 40.69L524.837 44.42L528.747 48.33ZM536.647 35.51H548.137V36.74C548.137 37.1066 548.097 37.4033 548.017 37.63C547.944 37.8566 547.867 38.0466 547.787 38.2L541.487 51.17C541.354 51.4433 541.171 51.6733 540.937 51.86C540.697 52.0466 540.377 52.14 539.977 52.14H537.917L544.347 39.43C544.494 39.17 544.637 38.93 544.777 38.71C544.924 38.4966 545.084 38.29 545.257 38.09H537.297C537.124 38.09 536.971 38.0233 536.837 37.89C536.711 37.7633 536.647 37.61 536.647 37.43V35.51ZM554.167 38.09L553.587 41.55C553.954 41.47 554.307 41.4133 554.647 41.38C554.981 41.3466 555.304 41.33 555.617 41.33C556.491 41.33 557.261 41.46 557.927 41.72C558.601 41.98 559.161 42.34 559.607 42.8C560.061 43.26 560.404 43.8 560.637 44.42C560.864 45.0333 560.977 45.6966 560.977 46.41C560.977 47.2966 560.824 48.1033 560.517 48.83C560.204 49.5566 559.771 50.18 559.217 50.7C558.664 51.2133 558.011 51.6133 557.257 51.9C556.504 52.18 555.684 52.32 554.797 52.32C554.271 52.32 553.774 52.2666 553.307 52.16C552.841 52.0533 552.404 51.91 551.997 51.73C551.584 51.55 551.204 51.3433 550.857 51.11C550.504 50.8766 550.191 50.63 549.917 50.37L550.787 49.16C550.974 48.9 551.217 48.77 551.517 48.77C551.711 48.77 551.904 48.83 552.097 48.95C552.297 49.0766 552.527 49.2133 552.787 49.36C553.041 49.5066 553.344 49.64 553.697 49.76C554.044 49.88 554.464 49.94 554.957 49.94C555.477 49.94 555.937 49.8566 556.337 49.69C556.731 49.5233 557.061 49.2866 557.327 48.98C557.594 48.68 557.794 48.32 557.927 47.9C558.061 47.4866 558.127 47.0333 558.127 46.54C558.127 45.6333 557.864 44.9266 557.337 44.42C556.811 43.9066 556.034 43.65 555.007 43.65C554.221 43.65 553.414 43.7966 552.587 44.09L550.817 43.58L552.197 35.51H560.407V36.72C560.407 37.1266 560.281 37.4566 560.027 37.71C559.774 37.9633 559.344 38.09 558.737 38.09H554.167Z" fill="#999999"/>
</g>
<g clip-path="url(#clip4_8_6)">
<path d="M417.762 6.32495H267.762V81.325H417.762V6.32495Z" fill="#DDDDDD"/>
<path d="M305.947 50.01H308.937V52.14H299.737V50.01H303.107V40.32C303.107 39.9333 303.121 39.5366 303.147 39.13L300.757 41.13C300.617 41.2433 300.481 41.3133 300.347 41.34C300.214 41.3666 300.087 41.3666 299.967 41.34C299.847 41.32 299.741 41.28 299.647 41.22C299.554 41.16 299.484 41.0966 299.437 41.03L298.547 39.8L303.617 35.49H305.947V50.01ZM315.637 38.09L315.047 41.55C315.414 41.47 315.767 41.4133 316.107 41.38C316.441 41.3466 316.767 41.33 317.087 41.33C317.961 41.33 318.731 41.46 319.397 41.72C320.064 41.98 320.624 42.34 321.077 42.8C321.524 43.26 321.864 43.8 322.097 44.42C322.324 45.0333 322.437 45.6966 322.437 46.41C322.437 47.2966 322.284 48.1033 321.977 48.83C321.664 49.5566 321.231 50.18 320.677 50.7C320.131 51.2133 319.477 51.6133 318.717 51.9C317.964 52.18 317.144 52.32 316.257 52.32C315.737 52.32 315.241 52.2666 314.767 52.16C314.301 52.0533 313.864 51.91 313.457 51.73C313.044 51.55 312.664 51.3433 312.317 51.11C311.971 50.8766 311.657 50.63 311.377 50.37L312.257 49.16C312.437 48.9 312.677 48.77 312.977 48.77C313.171 48.77 313.367 48.83 313.567 48.95C313.767 49.0766 313.994 49.2133 314.247 49.36C314.507 49.5066 314.811 49.64 315.157 49.76C315.504 49.88 315.924 49.94 316.417 49.94C316.937 49.94 317.397 49.8566 317.797 49.69C318.197 49.5233 318.527 49.2866 318.787 48.98C319.054 48.68 319.254 48.32 319.387 47.9C319.521 47.4866 319.587 47.0333 319.587 46.54C319.587 45.6333 319.324 44.9266 318.797 44.42C318.277 43.9066 317.504 43.65 316.477 43.65C315.684 43.65 314.874 43.7966 314.047 44.09L312.277 43.58L313.657 35.51H321.867V36.72C321.867 37.1266 321.741 37.4566 321.487 37.71C321.234 37.9633 320.804 38.09 320.197 38.09H315.637ZM336.487 43.83C336.487 45.2766 336.331 46.5333 336.017 47.6C335.704 48.6733 335.274 49.5566 334.727 50.25C334.181 50.95 333.534 51.47 332.787 51.81C332.041 52.15 331.234 52.32 330.367 52.32C329.501 52.32 328.697 52.15 327.957 51.81C327.217 51.47 326.574 50.95 326.027 50.25C325.487 49.5566 325.064 48.6733 324.757 47.6C324.451 46.5333 324.297 45.2766 324.297 43.83C324.297 42.37 324.451 41.1066 324.757 40.04C325.064 38.9733 325.487 38.0933 326.027 37.4C326.574 36.7 327.217 36.18 327.957 35.84C328.697 35.5 329.501 35.33 330.367 35.33C331.234 35.33 332.041 35.5 332.787 35.84C333.534 36.18 334.181 36.7 334.727 37.4C335.274 38.0933 335.704 38.9733 336.017 40.04C336.331 41.1066 336.487 42.37 336.487 43.83ZM333.547 43.83C333.547 42.6233 333.461 41.6266 333.287 40.84C333.107 40.0466 332.871 39.4166 332.577 38.95C332.284 38.4833 331.944 38.1566 331.557 37.97C331.177 37.7766 330.781 37.68 330.367 37.68C329.961 37.68 329.567 37.7766 329.187 37.97C328.807 38.1566 328.471 38.4833 328.177 38.95C327.891 39.4166 327.661 40.0466 327.487 40.84C327.314 41.6266 327.227 42.6233 327.227 43.83C327.227 45.03 327.314 46.0266 327.487 46.82C327.661 47.6066 327.891 48.2333 328.177 48.7C328.471 49.1666 328.807 49.4933 329.187 49.68C329.567 49.8733 329.961 49.97 330.367 49.97C330.781 49.97 331.177 49.8733 331.557 49.68C331.944 49.4933 332.284 49.1666 332.577 48.7C332.871 48.2333 333.107 47.6066 333.287 46.82C333.461 46.0266 333.547 45.03 333.547 43.83ZM354.747 48.33L353.237 49.82L349.337 45.92L345.407 49.84L343.897 48.36L347.837 44.41L344.087 40.66L345.577 39.17L349.327 42.92L353.057 39.19L354.577 40.69L350.837 44.42L354.747 48.33ZM362.647 35.51H374.137V36.74C374.137 37.1066 374.097 37.4033 374.017 37.63C373.944 37.8566 373.867 38.0466 373.787 38.2L367.487 51.17C367.354 51.4433 367.171 51.6733 366.937 51.86C366.697 52.0466 366.377 52.14 365.977 52.14H363.917L370.347 39.43C370.494 39.17 370.637 38.93 370.777 38.71C370.924 38.4966 371.084 38.29 371.257 38.09H363.297C363.124 38.09 362.971 38.0233 362.837 37.89C362.711 37.7633 362.647 37.61 362.647 37.43V35.51ZM380.167 38.09L379.587 41.55C379.954 41.47 380.307 41.4133 380.647 41.38C380.981 41.3466 381.304 41.33 381.617 41.33C382.491 41.33 383.261 41.46 383.927 41.72C384.601 41.98 385.161 42.34 385.607 42.8C386.061 43.26 386.404 43.8 386.637 44.42C386.864 45.0333 386.977 45.6966 386.977 46.41C386.977 47.2966 386.824 48.1033 386.517 48.83C386.204 49.5566 385.771 50.18 385.217 50.7C384.664 51.2133 384.011 51.6133 383.257 51.9C382.504 52.18 381.684 52.32 380.797 52.32C380.271 52.32 379.774 52.2666 379.307 52.16C378.841 52.0533 378.404 51.91 377.997 51.73C377.584 51.55 377.204 51.3433 376.857 51.11C376.504 50.8766 376.191 50.63 375.917 50.37L376.787 49.16C376.974 48.9 377.217 48.77 377.517 48.77C377.711 48.77 377.904 48.83 378.097 48.95C378.297 49.0766 378.527 49.2133 378.787 49.36C379.041 49.5066 379.344 49.64 379.697 49.76C380.044 49.88 380.464 49.94 380.957 49.94C381.477 49.94 381.937 49.8566 382.337 49.69C382.731 49.5233 383.061 49.2866 383.327 48.98C383.594 48.68 383.794 48.32 383.927 47.9C384.061 47.4866 384.127 47.0333 384.127 46.54C384.127 45.6333 383.864 44.9266 383.337 44.42C382.811 43.9066 382.034 43.65 381.007 43.65C380.221 43.65 379.414 43.7966 378.587 44.09L376.817 43.58L378.197 35.51H386.407V36.72C386.407 37.1266 386.281 37.4566 386.027 37.71C385.774 37.9633 385.344 38.09 384.737 38.09H380.167Z" fill="#999999"/>
</g>
<g clip-path="url(#clip5_8_6)">
<path d="M243.762 6.32495H93.7625V81.325H243.762V6.32495Z" fill="#DDDDDD"/>
<path d="M131.947 50.01H134.937V52.14H125.737V50.01H129.107V40.32C129.107 39.9333 129.121 39.5366 129.147 39.13L126.757 41.13C126.617 41.2433 126.481 41.3133 126.347 41.34C126.214 41.3666 126.087 41.3666 125.967 41.34C125.847 41.32 125.741 41.28 125.647 41.22C125.554 41.16 125.484 41.0966 125.437 41.03L124.547 39.8L129.617 35.49H131.947V50.01ZM141.637 38.09L141.047 41.55C141.414 41.47 141.767 41.4133 142.107 41.38C142.441 41.3466 142.767 41.33 143.087 41.33C143.961 41.33 144.731 41.46 145.397 41.72C146.064 41.98 146.624 42.34 147.077 42.8C147.524 43.26 147.864 43.8 148.097 44.42C148.324 45.0333 148.437 45.6966 148.437 46.41C148.437 47.2966 148.284 48.1033 147.977 48.83C147.664 49.5566 147.231 50.18 146.677 50.7C146.131 51.2133 145.477 51.6133 144.717 51.9C143.964 52.18 143.144 52.32 142.257 52.32C141.737 52.32 141.241 52.2666 140.767 52.16C140.301 52.0533 139.864 51.91 139.457 51.73C139.044 51.55 138.664 51.3433 138.317 51.11C137.971 50.8766 137.657 50.63 137.377 50.37L138.257 49.16C138.437 48.9 138.677 48.77 138.977 48.77C139.171 48.77 139.367 48.83 139.567 48.95C139.767 49.0766 139.994 49.2133 140.247 49.36C140.507 49.5066 140.811 49.64 141.157 49.76C141.504 49.88 141.924 49.94 142.417 49.94C142.937 49.94 143.397 49.8566 143.797 49.69C144.197 49.5233 144.527 49.2866 144.787 48.98C145.054 48.68 145.254 48.32 145.387 47.9C145.521 47.4866 145.587 47.0333 145.587 46.54C145.587 45.6333 145.324 44.9266 144.797 44.42C144.277 43.9066 143.504 43.65 142.477 43.65C141.684 43.65 140.874 43.7966 140.047 44.09L138.277 43.58L139.657 35.51H147.867V36.72C147.867 37.1266 147.741 37.4566 147.487 37.71C147.234 37.9633 146.804 38.09 146.197 38.09H141.637ZM162.487 43.83C162.487 45.2766 162.331 46.5333 162.017 47.6C161.704 48.6733 161.274 49.5566 160.727 50.25C160.181 50.95 159.534 51.47 158.787 51.81C158.041 52.15 157.234 52.32 156.367 52.32C155.501 52.32 154.697 52.15 153.957 51.81C153.217 51.47 152.574 50.95 152.027 50.25C151.487 49.5566 151.064 48.6733 150.757 47.6C150.451 46.5333 150.297 45.2766 150.297 43.83C150.297 42.37 150.451 41.1066 150.757 40.04C151.064 38.9733 151.487 38.0933 152.027 37.4C152.574 36.7 153.217 36.18 153.957 35.84C154.697 35.5 155.501 35.33 156.367 35.33C157.234 35.33 158.041 35.5 158.787 35.84C159.534 36.18 160.181 36.7 160.727 37.4C161.274 38.0933 161.704 38.9733 162.017 40.04C162.331 41.1066 162.487 42.37 162.487 43.83ZM159.547 43.83C159.547 42.6233 159.461 41.6266 159.287 40.84C159.107 40.0466 158.871 39.4166 158.577 38.95C158.284 38.4833 157.944 38.1566 157.557 37.97C157.177 37.7766 156.781 37.68 156.367 37.68C155.961 37.68 155.567 37.7766 155.187 37.97C154.807 38.1566 154.471 38.4833 154.177 38.95C153.891 39.4166 153.661 40.0466 153.487 40.84C153.314 41.6266 153.227 42.6233 153.227 43.83C153.227 45.03 153.314 46.0266 153.487 46.82C153.661 47.6066 153.891 48.2333 154.177 48.7C154.471 49.1666 154.807 49.4933 155.187 49.68C155.567 49.8733 155.961 49.97 156.367 49.97C156.781 49.97 157.177 49.8733 157.557 49.68C157.944 49.4933 158.284 49.1666 158.577 48.7C158.871 48.2333 159.107 47.6066 159.287 46.82C159.461 46.0266 159.547 45.03 159.547 43.83ZM180.747 48.33L179.237 49.82L175.337 45.92L171.407 49.84L169.897 48.36L173.837 44.41L170.087 40.66L171.577 39.17L175.327 42.92L179.057 39.19L180.577 40.69L176.837 44.42L180.747 48.33ZM188.647 35.51H200.137V36.74C200.137 37.1066 200.097 37.4033 200.017 37.63C199.944 37.8566 199.867 38.0466 199.787 38.2L193.487 51.17C193.354 51.4433 193.171 51.6733 192.937 51.86C192.697 52.0466 192.377 52.14 191.977 52.14H189.917L196.347 39.43C196.494 39.17 196.637 38.93 196.777 38.71C196.924 38.4966 197.084 38.29 197.257 38.09H189.297C189.124 38.09 188.971 38.0233 188.837 37.89C188.711 37.7633 188.647 37.61 188.647 37.43V35.51ZM206.167 38.09L205.587 41.55C205.954 41.47 206.307 41.4133 206.647 41.38C206.981 41.3466 207.304 41.33 207.617 41.33C208.491 41.33 209.261 41.46 209.927 41.72C210.601 41.98 211.161 42.34 211.607 42.8C212.061 43.26 212.404 43.8 212.637 44.42C212.864 45.0333 212.977 45.6966 212.977 46.41C212.977 47.2966 212.824 48.1033 212.517 48.83C212.204 49.5566 211.771 50.18 211.217 50.7C210.664 51.2133 210.011 51.6133 209.257 51.9C208.504 52.18 207.684 52.32 206.797 52.32C206.271 52.32 205.774 52.2666 205.307 52.16C204.841 52.0533 204.404 51.91 203.997 51.73C203.584 51.55 203.204 51.3433 202.857 51.11C202.504 50.8766 202.191 50.63 201.917 50.37L202.787 49.16C202.974 48.9 203.217 48.77 203.517 48.77C203.711 48.77 203.904 48.83 204.097 48.95C204.297 49.0766 204.527 49.2133 204.787 49.36C205.041 49.5066 205.344 49.64 205.697 49.76C206.044 49.88 206.464 49.94 206.957 49.94C207.477 49.94 207.937 49.8566 208.337 49.69C208.731 49.5233 209.061 49.2866 209.327 48.98C209.594 48.68 209.794 48.32 209.927 47.9C210.061 47.4866 210.127 47.0333 210.127 46.54C210.127 45.6333 209.864 44.9266 209.337 44.42C208.811 43.9066 208.034 43.65 207.007 43.65C206.221 43.65 205.414 43.7966 204.587 44.09L202.817 43.58L204.197 35.51H212.407V36.72C212.407 37.1266 212.281 37.4566 212.027 37.71C211.774 37.9633 211.344 38.09 210.737 38.09H206.167Z" fill="#999999"/>
</g>
<defs>
<clipPath id="clip0_8_6">
<rect width="150" height="75" fill="white" transform="translate(441.762 105.325)"/>
</clipPath>
<clipPath id="clip1_8_6">
<rect width="150" height="75" fill="white" transform="translate(267.762 105.325)"/>
</clipPath>
<clipPath id="clip2_8_6">
<rect width="150" height="75" fill="white" transform="translate(615.762 6.32495)"/>
</clipPath>
<clipPath id="clip3_8_6">
<rect width="150" height="75" fill="white" transform="translate(441.762 6.32495)"/>
</clipPath>
<clipPath id="clip4_8_6">
<rect width="150" height="75" fill="white" transform="translate(267.762 6.32495)"/>
</clipPath>
<clipPath id="clip5_8_6">
<rect width="150" height="75" fill="white" transform="translate(93.7625 6.32495)"/>
</clipPath>
</defs>
</svg>
